<svg width="25" height="13" viewBox="0 0 25 13" fill="none" xmlns="http://www.w3.org/2000/svg">
<path d="M5.928 0C6.824 0 7.608 0.136 8.28 0.408C8.952 0.680001 9.52 1.064 9.984 1.56C10.448 2.056 10.808 2.632 11.064 3.288L8.832 4.248C8.608 3.496 8.256 2.92 7.776 2.52C7.312 2.12 6.688 1.92 5.904 1.92C5.168 1.92 4.528 2.088 3.984 2.424C3.456 2.76 3.056 3.256 2.784 3.912C2.512 4.552 2.376 5.328 2.376 6.24C2.376 7.152 2.512 7.936 2.784 8.592C3.072 9.232 3.48 9.72 4.008 10.056C4.536 10.392 5.168 10.56 5.904 10.56C6.48 10.56 6.976 10.472 7.392 10.296C7.824 10.104 8.168 9.832 8.424 9.48C8.696 9.128 8.888 8.696 9 8.184L11.16 8.928C10.92 9.648 10.56 10.28 10.08 10.824C9.6 11.352 9.016 11.76 8.328 12.048C7.64 12.336 6.848 12.48 5.952 12.48C4.8 12.48 3.768 12.232 2.856 11.736C1.96 11.24 1.256 10.528 0.744 9.6C0.248 8.656 0 7.536 0 6.24C0 4.944 0.248 3.832 0.744 2.904C1.256 1.96 1.96 1.24 2.856 0.744C3.752 0.248 4.776 0 5.928 0Z" fill="#FFFAEE"/>
<path d="M21.9542 0.240001H24.4262L19.5782 12.24H17.0582L12.1862 0.240001H14.8022L18.3302 10.104L21.9542 0.240001Z" fill="#FFFAEE"/>
</svg>
